<?xml version="1.0" encoding="utf-8"?>
<!-- Generator: Adobe Illustrator 22.1.0, SVG Export Plug-In . SVG Version: 6.00 Build 0)  -->
<svg version="1.1" id="Layer_1" xmlns="http://www.w3.org/2000/svg" xmlns:xlink="http://www.w3.org/1999/xlink" x="0px" y="0px"
	 width="68.3px" height="42.6px" viewBox="0 0 68.3 42.6" style="enable-background:new 0 0 68.3 42.6;" xml:space="preserve">
<style type="text/css">
	.st0{fill:#F22B29;}
	.st1{fill:#FFFFFF;}
</style>
<g>
	<g>
		<path class="st0" d="M11.4,10.1c3.1,0,5.8,1.2,8.1,3.3s3.3,4.9,3.3,8.1s-1.2,5.8-3.3,8.2c-2.3,2.1-4.9,3.3-8.1,3.3
			s-5.6-1.3-8.1-3.4C1.2,27,0,24.2,0,21.1s1.2-5.8,3.3-8.1S8.5,10.1,11.4,10.1z M4.1,21.3c0,2.1,0.7,3.7,2.1,5.3
			c1.5,1.5,3.1,2.3,5.2,2.3c1.9,0,3.7-0.7,5.2-2.3c1.5-1.5,2.1-3.3,2.1-5.3s-0.7-4-2.1-5.3c-1.2-1.6-2.9-2.3-5.2-2.3
			c-1.9,0-3.5,0.7-4.9,2.3C4.9,17.4,4.1,19.3,4.1,21.3z"/>
	</g>
	<polygon class="st1" points="29.4,18.3 29.4,18.3 29.4,0 25.7,0 25.7,32.3 29.4,32.3 29.4,23.2 29.4,23.2 	"/>
	<path class="st1" d="M43.7,30.7c0-1.6-0.4-3.3-1.2-4.9c-1.1-1.6-1.6-2.5-2.3-3.3c-0.7-0.7-1.2-1.1-1.6-1.2l-1.2-0.7
		c3.5-1.9,5.6-4.8,6.4-8.2l0.4-1.9h-4.5l-0.2,1.5c-0.4,1.9-1.5,3.7-3.3,4.9c-1.5,1.2-3.1,1.6-4.8,1.9v3.7c1.9,0.2,3.5,1.1,4.9,1.9
		c1.6,1.5,2.9,3.3,3.1,5.8l0.2,1.6h4v-1.1H43.7z"/>
	<path class="st1" d="M64.6,0v14.7v6.2c0,2.3-0.7,4.1-2.1,5.8c-1.5,1.6-3.3,2.3-5.3,2.3s-3.7-0.7-5.2-2.1c-1.5-1.5-2.1-3.3-2.1-5.2
		c0-2.1,0.7-4,2.3-5.3c1.5-1.5,3.5-2.3,5.6-2.3c0.2,0,0.4,0,0.7,0c0.2,0,0.7,0,1.2,0.2c0.7,0.2,1.5,0.4,2.3,1.1V11
		c-1.1-0.4-1.9-0.7-2.5-0.7c-0.4-0.2-1.1-0.2-2.1-0.2c-3.5,0-6.2,1.1-8.5,3.1c-2.1,2.1-3.3,4.8-3.3,8.2s1.2,6.2,3.3,8.2
		c2.1,2.1,4.9,3.1,8.2,3.1c3.1,0,5.3-0.7,7.2-2.3v2.3h3.8V20.9v-6.2V0H64.6z"/>
</g>
</svg>
